<svg width="24" height="24" viewBox="0 0 24 24" fill="none" xmlns="http://www.w3.org/2000/svg">
<path d="M0 12C0 5.37258 5.37258 0 12 0C18.6274 0 24 5.37258 24 12C24 18.6274 18.6274 24 12 24C5.37258 24 0 18.6274 0 12Z" fill="#383838"/>
<path d="M15.399 10.95L14.464 8.49305C14.3866 8.29045 14.246 8.11539 14.0611 7.99147C13.8762 7.86755 13.656 7.80074 13.43 7.80005H12V8.85005H13.43L14.233 10.95H11.5875L11.3895 10.425H12V9.37505H9.25004V10.425H10.2125L11.2135 13.05H10.845C10.603 11.8793 9.57454 11.013 8.28754 10.9553C6.74754 10.8818 5.40004 12.105 5.40004 13.575C5.40004 15.045 6.61004 16.2 8.15004 16.2C9.50304 16.2 10.5975 15.3128 10.845 14.1H13.155C13.397 15.2708 14.4255 16.137 15.7125 16.1948C17.2525 16.263 18.6 15.045 18.6 13.5698C18.6 12.0998 17.39 10.9448 15.85 10.9448H15.399V10.95ZM9.70104 14.1C9.48104 14.7143 8.88154 15.15 8.15004 15.15C7.22604 15.15 6.50004 14.457 6.50004 13.575C6.50004 12.693 7.22604 12 8.15004 12C8.88154 12 9.48104 12.4358 9.70104 13.05H8.15004V14.1H9.70104ZM13.155 13.05H12.385L11.9835 12H13.65C13.408 12.3045 13.232 12.6563 13.155 13.05ZM15.85 15.15C14.926 15.15 14.2 14.457 14.2 13.575C14.2 13.0868 14.4255 12.6668 14.7775 12.378L15.3055 13.764L16.3395 13.407L15.806 12.0053C15.8225 12.0053 15.839 12 15.8555 12C16.7795 12 17.5055 12.693 17.5055 13.575C17.5055 14.457 16.774 15.15 15.85 15.15Z" fill="white"/>
</svg>
