<svg width="88" height="88" viewBox="0 0 88 88" fill="none" xmlns="http://www.w3.org/2000/svg">
<g filter="url(#filter0_d_15_435)">
<path d="M24 44C24 32.9543 32.9543 24 44 24C55.0457 24 64 32.9543 64 44C64 55.0457 55.0457 64 44 64C32.9543 64 24 55.0457 24 44Z" fill="#32F3AE"/>
<path d="M49.665 42.25L48.1067 38.155C47.9777 37.8173 47.7433 37.5256 47.4351 37.319C47.127 37.1125 46.7599 37.0012 46.3833 37H44V38.75H46.3833L47.7217 42.25H43.3125L42.9825 41.375H44V39.625H39.4167V41.375H41.0208L42.6892 45.75H42.075C41.6717 43.7987 39.9575 42.355 37.8125 42.2587C35.2458 42.1363 33 44.175 33 46.625C33 49.075 35.0167 51 37.5833 51C39.8383 51 41.6625 49.5212 42.075 47.5H45.925C46.3283 49.4513 48.0425 50.895 50.1875 50.9913C52.7542 51.105 55 49.075 55 46.6163C55 44.1662 52.9833 42.2413 50.4167 42.2413H49.665V42.25ZM40.1683 47.5C39.8017 48.5238 38.8025 49.25 37.5833 49.25C36.0433 49.25 34.8333 48.095 34.8333 46.625C34.8333 45.155 36.0433 44 37.5833 44C38.8025 44 39.8017 44.7263 40.1683 45.75H37.5833V47.5H40.1683ZM45.925 45.75H44.6417L43.9725 44H46.75C46.3467 44.5075 46.0533 45.0938 45.925 45.75ZM50.4167 49.25C48.8767 49.25 47.6667 48.095 47.6667 46.625C47.6667 45.8112 48.0425 45.1112 48.6292 44.63L49.5092 46.94L51.2325 46.345L50.3433 44.0087C50.3708 44.0087 50.3983 44 50.4258 44C51.9658 44 53.1758 45.155 53.1758 46.625C53.1758 48.095 51.9567 49.25 50.4167 49.25Z" fill="#383838"/>
</g>
<defs>
<filter id="filter0_d_15_435" x="0" y="0" width="88" height="88" filterUnits="userSpaceOnUse" color-interpolation-filters="sRGB">
<feFlood flood-opacity="0" result="BackgroundImageFix"/>
<feColorMatrix in="SourceAlpha" type="matrix" values="0 0 0 0 0 0 0 0 0 0 0 0 0 0 0 0 0 0 127 0" result="hardAlpha"/>
<feOffset/>
<feGaussianBlur stdDeviation="12"/>
<feComposite in2="hardAlpha" operator="out"/>
<feColorMatrix type="matrix" values="0 0 0 0 0 0 0 0 0 0 0 0 0 0 0 0 0 0 0.1 0"/>
<feBlend mode="normal" in2="BackgroundImageFix" result="effect1_dropShadow_15_435"/>
<feBlend mode="normal" in="SourceGraphic" in2="effect1_dropShadow_15_435" result="shape"/>
</filter>
</defs>
</svg>
