<svg width="88" height="75" viewBox="0 0 88 75" fill="none" xmlns="http://www.w3.org/2000/svg">
<g filter="url(#filter0_d_15_1713)">
<path d="M24 31C24 19.9543 32.9543 11 44 11C55.0457 11 64 19.9543 64 31C64 42.0457 55.0457 51 44 51C32.9543 51 24 42.0457 24 31Z" fill="#32F3AE"/>
<path d="M49.665 29.25L48.1067 25.155C47.9777 24.8173 47.7433 24.5256 47.4351 24.319C47.127 24.1125 46.7599 24.0012 46.3833 24H44V25.75H46.3833L47.7217 29.25H43.3125L42.9825 28.375H44V26.625H39.4167V28.375H41.0208L42.6892 32.75H42.075C41.6717 30.7987 39.9575 29.355 37.8125 29.2587C35.2458 29.1363 33 31.175 33 33.625C33 36.075 35.0167 38 37.5833 38C39.8383 38 41.6625 36.5212 42.075 34.5H45.925C46.3283 36.4513 48.0425 37.895 50.1875 37.9913C52.7542 38.105 55 36.075 55 33.6163C55 31.1662 52.9833 29.2413 50.4167 29.2413H49.665V29.25ZM40.1683 34.5C39.8017 35.5238 38.8025 36.25 37.5833 36.25C36.0433 36.25 34.8333 35.095 34.8333 33.625C34.8333 32.155 36.0433 31 37.5833 31C38.8025 31 39.8017 31.7263 40.1683 32.75H37.5833V34.5H40.1683ZM45.925 32.75H44.6417L43.9725 31H46.75C46.3467 31.5075 46.0533 32.0938 45.925 32.75ZM50.4167 36.25C48.8767 36.25 47.6667 35.095 47.6667 33.625C47.6667 32.8112 48.0425 32.1112 48.6292 31.63L49.5092 33.94L51.2325 33.345L50.3433 31.0087C50.3708 31.0087 50.3983 31 50.4258 31C51.9658 31 53.1758 32.155 53.1758 33.625C53.1758 35.095 51.9567 36.25 50.4167 36.25Z" fill="#383838"/>
</g>
<defs>
<filter id="filter0_d_15_1713" x="0" y="-13" width="88" height="88" filterUnits="userSpaceOnUse" color-interpolation-filters="sRGB">
<feFlood flood-opacity="0" result="BackgroundImageFix"/>
<feColorMatrix in="SourceAlpha" type="matrix" values="0 0 0 0 0 0 0 0 0 0 0 0 0 0 0 0 0 0 127 0" result="hardAlpha"/>
<feOffset/>
<feGaussianBlur stdDeviation="12"/>
<feComposite in2="hardAlpha" operator="out"/>
<feColorMatrix type="matrix" values="0 0 0 0 0 0 0 0 0 0 0 0 0 0 0 0 0 0 0.1 0"/>
<feBlend mode="normal" in2="BackgroundImageFix" result="effect1_dropShadow_15_1713"/>
<feBlend mode="normal" in="SourceGraphic" in2="effect1_dropShadow_15_1713" result="shape"/>
</filter>
</defs>
</svg>
