<svg width="72" height="72" viewBox="0 0 72 72" fill="none" xmlns="http://www.w3.org/2000/svg">
<g filter="url(#filter0_d_44_3874)">
<path d="M24 36C24 29.3726 29.3726 24 36 24C42.6274 24 48 29.3726 48 36C48 42.6274 42.6274 48 36 48C29.3726 48 24 42.6274 24 36Z" fill="#383838"/>
<path d="M39.399 34.95L38.464 32.493C38.3866 32.2905 38.246 32.1154 38.0611 31.9915C37.8762 31.8676 37.656 31.8007 37.43 31.8H36V32.85H37.43L38.233 34.95H35.5875L35.3895 34.425H36V33.375H33.25V34.425H34.2125L35.2135 37.05H34.845C34.603 35.8793 33.5745 35.013 32.2875 34.9553C30.7475 34.8818 29.4 36.105 29.4 37.575C29.4 39.045 30.61 40.2 32.15 40.2C33.503 40.2 34.5975 39.3128 34.845 38.1H37.155C37.397 39.2708 38.4255 40.137 39.7125 40.1948C41.2525 40.263 42.6 39.045 42.6 37.5698C42.6 36.0998 41.39 34.9448 39.85 34.9448H39.399V34.95ZM33.701 38.1C33.481 38.7143 32.8815 39.15 32.15 39.15C31.226 39.15 30.5 38.457 30.5 37.575C30.5 36.693 31.226 36 32.15 36C32.8815 36 33.481 36.4358 33.701 37.05H32.15V38.1H33.701ZM37.155 37.05H36.385L35.9835 36H37.65C37.408 36.3045 37.232 36.6563 37.155 37.05ZM39.85 39.15C38.926 39.15 38.2 38.457 38.2 37.575C38.2 37.0868 38.4255 36.6668 38.7775 36.378L39.3055 37.764L40.3395 37.407L39.806 36.0053C39.8225 36.0053 39.839 36 39.8555 36C40.7795 36 41.5055 36.693 41.5055 37.575C41.5055 38.457 40.774 39.15 39.85 39.15Z" fill="white"/>
</g>
<defs>
<filter id="filter0_d_44_3874" x="0" y="0" width="72" height="72" filterUnits="userSpaceOnUse" color-interpolation-filters="sRGB">
<feFlood flood-opacity="0" result="BackgroundImageFix"/>
<feColorMatrix in="SourceAlpha" type="matrix" values="0 0 0 0 0 0 0 0 0 0 0 0 0 0 0 0 0 0 127 0" result="hardAlpha"/>
<feOffset/>
<feGaussianBlur stdDeviation="12"/>
<feComposite in2="hardAlpha" operator="out"/>
<feColorMatrix type="matrix" values="0 0 0 0 0 0 0 0 0 0 0 0 0 0 0 0 0 0 0.1 0"/>
<feBlend mode="normal" in2="BackgroundImageFix" result="effect1_dropShadow_44_3874"/>
<feBlend mode="normal" in="SourceGraphic" in2="effect1_dropShadow_44_3874" result="shape"/>
</filter>
</defs>
</svg>
