<svg width="24" height="24" viewBox="0 0 24 24" fill="none" xmlns="http://www.w3.org/2000/svg">
<path d="M0 12C0 5.37258 5.37258 0 12 0V0C18.6274 0 24 5.37258 24 12V12C24 18.6274 18.6274 24 12 24V24C5.37258 24 0 18.6274 0 12V12Z" fill="#32F3AE"/>
<path d="M15.3991 10.95L14.4641 8.49302C14.3867 8.29042 14.2461 8.11536 14.0612 7.99144C13.8763 7.86752 13.6561 7.80071 13.4301 7.80002H12.0001V8.85002H13.4301L14.2331 10.95H11.5876L11.3896 10.425H12.0001V9.37502H9.25015V10.425H10.2126L11.2136 13.05H10.8451C10.6031 11.8793 9.57465 11.013 8.28765 10.9553C6.74765 10.8818 5.40015 12.105 5.40015 13.575C5.40015 15.045 6.61015 16.2 8.15015 16.2C9.50315 16.2 10.5976 15.3128 10.8451 14.1H13.1551C13.3971 15.2708 14.4256 16.137 15.7126 16.1948C17.2526 16.263 18.6001 15.045 18.6001 13.5698C18.6001 12.0998 17.3901 10.9448 15.8501 10.9448H15.3991V10.95ZM9.70115 14.1C9.48115 14.7143 8.88165 15.15 8.15015 15.15C7.22615 15.15 6.50015 14.457 6.50015 13.575C6.50015 12.693 7.22615 12 8.15015 12C8.88165 12 9.48115 12.4358 9.70115 13.05H8.15015V14.1H9.70115ZM13.1551 13.05H12.3851L11.9836 12H13.6501C13.4081 12.3045 13.2321 12.6563 13.1551 13.05V13.05ZM15.8501 15.15C14.9261 15.15 14.2001 14.457 14.2001 13.575C14.2001 13.0868 14.4256 12.6668 14.7776 12.378L15.3056 13.764L16.3396 13.407L15.8061 12.0053C15.8226 12.0053 15.8391 12 15.8556 12C16.7796 12 17.5056 12.693 17.5056 13.575C17.5056 14.457 16.7741 15.15 15.8501 15.15Z" fill="#383838"/>
</svg>
