<svg width="16" height="16" viewBox="0 0 16 16"  xmlns="http://www.w3.org/2000/svg">
<path d="M11.3991 6.95002L10.4641 4.49302C10.3867 4.29042 10.2461 4.11536 10.0612 3.99144C9.87632 3.86752 9.65606 3.80071 9.43015 3.80002H8.00015V4.85002H9.43015L10.2331 6.95002H7.58765L7.38965 6.42502H8.00015V5.37502H5.25015V6.42502H6.21265L7.21365 9.05002H6.84515C6.60315 7.87927 5.57465 7.01302 4.28765 6.95527C2.74765 6.88177 1.40015 8.10502 1.40015 9.57502C1.40015 11.045 2.61015 12.2 4.15015 12.2C5.50315 12.2 6.59765 11.3128 6.84515 10.1H9.15515C9.39715 11.2708 10.4256 12.137 11.7126 12.1948C13.2526 12.263 14.6001 11.045 14.6001 9.56977C14.6001 8.09977 13.3901 6.94477 11.8501 6.94477H11.3991V6.95002ZM5.70115 10.1C5.48115 10.7143 4.88165 11.15 4.15015 11.15C3.22615 11.15 2.50015 10.457 2.50015 9.57502C2.50015 8.69302 3.22615 8.00002 4.15015 8.00002C4.88165 8.00002 5.48115 8.43577 5.70115 9.05002H4.15015V10.1H5.70115ZM9.15515 9.05002H8.38515L7.98365 8.00002H9.65015C9.40815 8.30452 9.23215 8.65627 9.15515 9.05002ZM11.8501 11.15C10.9261 11.15 10.2001 10.457 10.2001 9.57502C10.2001 9.08677 10.4256 8.66677 10.7776 8.37802L11.3056 9.76402L12.3396 9.40702L11.8061 8.00527C11.8226 8.00527 11.8391 8.00002 11.8556 8.00002C12.7796 8.00002 13.5056 8.69302 13.5056 9.57502C13.5056 10.457 12.7741 11.15 11.8501 11.15Z" />
</svg>
