<svg width="24" height="24" fill="none" xmlns="http://www.w3.org/2000/svg"><path fill-rule="evenodd" clip-rule="evenodd" d="M6.67 19.674a4.335 4.335 0 0 1-1.404-7.061l2.45-2.449L8.94 11.39l-2.45 2.448a2.602 2.602 0 0 0 0 3.674 2.604 2.604 0 0 0 3.674 0l2.449-2.45 1.224 1.225-2.448 2.45a4.318 4.318 0 0 1-3.062 1.266 4.314 4.314 0 0 1-1.657-.328ZM20 8.327a4.336 4.336 0 0 1-1.264 3.062l-2.45 2.448-1.224-1.224 2.45-2.449a2.602 2.602 0 0 0 0-3.674 2.603 2.603 0 0 0-3.675 0L11.39 8.94l-1.225-1.224 2.449-2.45a4.335 4.335 0 0 1 6.123 0A4.337 4.337 0 0 1 20 8.327ZM7.714 15.062l1.225 1.224 7.348-7.347-1.224-1.225-7.35 7.348Z" fill="#2C2C2C"/></svg>