<svg width="24" height="24" viewBox="0 0 24 24" fill="none" xmlns="http://www.w3.org/2000/svg">
<path d="M0 12C0 5.37258 5.37258 0 12 0C18.6274 0 24 5.37258 24 12C24 18.6274 18.6274 24 12 24C5.37258 24 0 18.6274 0 12Z" fill="#383838"/>
<path fill-rule="evenodd" clip-rule="evenodd" d="M15.6001 7.2C15.2687 7.2 15.0001 7.46863 15.0001 7.8C15.0001 8.13137 15.2687 8.4 15.6001 8.4C15.9314 8.4 16.2001 8.13137 16.2001 7.8C16.2001 7.46863 15.9314 7.2 15.6001 7.2ZM13.8001 7.8C13.8001 6.80589 14.606 6 15.6001 6C16.5942 6 17.4001 6.80589 17.4001 7.8C17.4001 8.79411 16.5942 9.6 15.6001 9.6C14.606 9.6 13.8001 8.79411 13.8001 7.8ZM8.70007 17.4C9.5285 17.4 10.2001 16.7284 10.2001 15.9C10.2001 15.0716 9.5285 14.4 8.70007 14.4C7.87165 14.4 7.20007 15.0716 7.20007 15.9C7.20007 16.7284 7.87165 17.4 8.70007 17.4ZM8.83941 8.83934C9.12072 8.55804 9.50225 8.4 9.90007 8.4H12.0001V7.2H9.90007C9.18399 7.2 8.49723 7.48446 7.99089 7.99081C7.48454 8.49716 7.20007 9.18392 7.20007 9.9C7.20007 10.6161 7.48454 11.3028 7.99089 11.8092C8.49723 12.3155 9.18399 12.6 9.90007 12.6H14.7001C15.0979 12.6 15.4794 12.758 15.7607 13.0393C16.042 13.3206 16.2001 13.7022 16.2001 14.1C16.2001 14.4978 16.042 14.8794 15.7607 15.1607C15.4794 15.442 15.0979 15.6 14.7001 15.6H12.0001V16.8H14.7001C15.4162 16.8 16.1029 16.5155 16.6093 16.0092C17.1156 15.5028 17.4001 14.8161 17.4001 14.1C17.4001 13.3839 17.1156 12.6972 16.6093 12.1908C16.1029 11.6845 15.4162 11.4 14.7001 11.4H9.90007C9.50225 11.4 9.12072 11.242 8.83941 10.9607C8.55811 10.6794 8.40007 10.2978 8.40007 9.9C8.40007 9.50218 8.55811 9.12064 8.83941 8.83934Z" fill="white"/>
</svg>
