<svg width="88" height="88" viewBox="0 0 88 88" fill="none" xmlns="http://www.w3.org/2000/svg">
<g filter="url(#filter0_d_64_4247)">
<path d="M24 44C24 32.9543 32.9543 24 44 24C55.0457 24 64 32.9543 64 44C64 55.0457 55.0457 64 44 64C32.9543 64 24 55.0457 24 44Z" fill="#32F3AE"/>
<path fill-rule="evenodd" clip-rule="evenodd" d="M50 35.875C49.3787 35.875 48.875 36.3787 48.875 37C48.875 37.6213 49.3787 38.125 50 38.125C50.6213 38.125 51.125 37.6213 51.125 37C51.125 36.3787 50.6213 35.875 50 35.875ZM47.125 37C47.125 35.4122 48.4122 34.125 50 34.125C51.5878 34.125 52.875 35.4122 52.875 37C52.875 38.5878 51.5878 39.875 50 39.875C48.4122 39.875 47.125 38.5878 47.125 37ZM38.5 53C39.8807 53 41 51.8807 41 50.5C41 49.1193 39.8807 48 38.5 48C37.1193 48 36 49.1193 36 50.5C36 51.8807 37.1193 53 38.5 53ZM38.6438 38.6438C39.1361 38.1516 39.8038 37.875 40.5 37.875H44V36.125H40.5C39.3397 36.125 38.2269 36.5859 37.4064 37.4064C36.5859 38.2269 36.125 39.3397 36.125 40.5C36.125 41.6603 36.5859 42.7731 37.4064 43.5936C38.2269 44.4141 39.3397 44.875 40.5 44.875H48.5C49.1962 44.875 49.8639 45.1516 50.3562 45.6438C50.8484 46.1361 51.125 46.8038 51.125 47.5C51.125 48.1962 50.8484 48.8639 50.3562 49.3562C49.8639 49.8484 49.1962 50.125 48.5 50.125H44V51.875H48.5C49.6603 51.875 50.7731 51.4141 51.5936 50.5936C52.4141 49.7731 52.875 48.6603 52.875 47.5C52.875 46.3397 52.4141 45.2269 51.5936 44.4064C50.7731 43.5859 49.6603 43.125 48.5 43.125H40.5C39.8038 43.125 39.1361 42.8484 38.6438 42.3562C38.1516 41.8639 37.875 41.1962 37.875 40.5C37.875 39.8038 38.1516 39.1361 38.6438 38.6438Z" fill="#383838"/>
</g>
<defs>
<filter id="filter0_d_64_4247" x="0" y="0" width="88" height="88" filterUnits="userSpaceOnUse" color-interpolation-filters="sRGB">
<feFlood flood-opacity="0" result="BackgroundImageFix"/>
<feColorMatrix in="SourceAlpha" type="matrix" values="0 0 0 0 0 0 0 0 0 0 0 0 0 0 0 0 0 0 127 0" result="hardAlpha"/>
<feOffset/>
<feGaussianBlur stdDeviation="12"/>
<feComposite in2="hardAlpha" operator="out"/>
<feColorMatrix type="matrix" values="0 0 0 0 0 0 0 0 0 0 0 0 0 0 0 0 0 0 0.1 0"/>
<feBlend mode="normal" in2="BackgroundImageFix" result="effect1_dropShadow_64_4247"/>
<feBlend mode="normal" in="SourceGraphic" in2="effect1_dropShadow_64_4247" result="shape"/>
</filter>
</defs>
</svg>
