<svg xmlns="http://www.w3.org/2000/svg" viewBox="0 0 20 19">
  <path  fill-rule="evenodd" d="M10 0c5.46 0 9.9 3.6 9.9 8.03 0 1.78-.69 3.37-2.12 4.95-2.08 2.39-6.72 5.3-7.78 5.75-1.03.43-.9-.25-.86-.51v-.03l.14-.84c.04-.26.07-.65-.03-.9-.11-.28-.55-.42-.87-.49C3.62 15.33.1 12.01.1 8.03.1 3.6 4.54 0 10 0ZM6.31 9.51H4.43V6.1a.2.2 0 0 0-.2-.2h-.7a.2.2 0 0 0-.18.2v4.31c0 .05.02.1.05.13v.01a.2.2 0 0 0 .14.05H6.3c.11 0 .2-.08.2-.19v-.7a.2.2 0 0 0-.2-.19ZM7.3 5.9H8c.1 0 .19.09.19.2v4.31c0 .1-.09.2-.2.2H7.3a.2.2 0 0 1-.19-.2V6.1c0-.11.09-.2.2-.2Zm4.78 0h.7c.1 0 .2.09.2.2v4.31c0 .1-.1.2-.2.2h-.7a.2.2 0 0 1-.05-.01h-.01v-.01h-.02v-.01h-.02a.19.19 0 0 1-.05-.06L9.94 7.84v2.56a.2.2 0 0 1-.2.2h-.69a.2.2 0 0 1-.2-.2V6.1c0-.11.1-.2.2-.2h.72l.02.01h.02l.01.01h.01l.02.01v.01h.01l.01.01.03.04 1.98 2.67V6.1c0-.11.09-.2.2-.2Zm4.73.9c0 .1-.1.18-.2.18h-1.89v.73h1.9c.1 0 .18.1.18.2v.69c0 .1-.08.2-.19.2h-1.89v.72h1.9c.1 0 .18.09.18.2v.69c0 .1-.08.2-.19.2h-2.77a.2.2 0 0 1-.14-.06.2.2 0 0 1-.06-.14V6.1c0-.06.03-.1.06-.14a.2.2 0 0 1 .14-.06h2.77c.1 0 .2.09.2.2v.7Z" clip-rule="evenodd"/>
</svg>