<svg width="24" height="24" fill="none" xmlns="http://www.w3.org/2000/svg"><path fill-rule="evenodd" clip-rule="evenodd" d="M12 2c5.46 0 9.901 3.604 9.901 8.035 0 1.773-.687 3.37-2.123 4.943-2.076 2.39-6.721 5.303-7.778 5.748-1.027.434-.908-.243-.861-.51l.003-.023.141-.848c.034-.252.069-.644-.032-.894-.111-.277-.55-.42-.871-.49-4.759-.627-8.281-3.955-8.281-7.926C2.099 5.604 6.542 2 12 2Zm-3.686 9.512H6.427V8.087a.193.193 0 0 0-.192-.193H5.54a.193.193 0 0 0-.193.193V12.4c0 .05.02.099.054.132v.002l.002.002.003.003a.19.19 0 0 0 .134.053h2.774a.192.192 0 0 0 .192-.193v-.693a.193.193 0 0 0-.192-.195Zm.98-3.618h.695c.106 0 .192.086.192.193V12.4a.192.192 0 0 1-.192.192h-.696A.193.193 0 0 1 9.1 12.4V8.087c0-.107.087-.193.193-.193Zm4.78 0h.693c.108 0 .195.086.195.193V12.4a.192.192 0 0 1-.193.192h-.695a.193.193 0 0 1-.05-.006h-.002a.2.2 0 0 1-.013-.005l-.007-.003-.008-.004a.092.092 0 0 1-.01-.005h-.004l-.012-.008-.001-.001a.19.19 0 0 1-.05-.049l-1.98-2.673v2.562a.193.193 0 0 1-.192.193h-.694a.193.193 0 0 1-.193-.192V8.087c0-.107.086-.193.193-.193h.715l.004.002h.007l.013.004h.002l.003.001.012.004.006.002a.123.123 0 0 1 .011.005l.004.001.002.002a.135.135 0 0 1 .017.01l.003.002.006.004c.003 0 .004.003.005.005a.125.125 0 0 1 .01.007l.004.004c.01.01.02.02.028.032l1.978 2.672V8.087c0-.107.087-.193.193-.193Zm4.722.887a.193.193 0 0 1-.192.193h-1.889v.73h1.888c.106 0 .191.087.191.192v.694a.193.193 0 0 1-.191.193h-1.888v.73h1.888c.106 0 .191.087.191.192v.695a.193.193 0 0 1-.191.193h-2.775a.192.192 0 0 1-.136-.056l-.003-.004a.192.192 0 0 1-.054-.132V8.087c0-.052.02-.1.053-.133l.004-.004h.001a.192.192 0 0 1 .135-.056h2.775c.106 0 .191.086.191.193v.694h.002Z" fill="#2C2C2C"/></svg>