<svg width="24" height="24" fill="none" xmlns="http://www.w3.org/2000/svg"><path fill-rule="evenodd" clip-rule="evenodd" d="M3 4.504A1.504 1.504 0 0 1 4.504 3h14.99A1.503 1.503 0 0 1 21 4.504v14.99A1.505 1.505 0 0 1 19.495 21H4.504A1.504 1.504 0 0 1 3 19.495V4.504Zm7.125 5.359h2.437v1.224c.352-.704 1.252-1.337 2.604-1.337 2.593 0 3.208 1.402 3.208 3.973v4.763H15.75V14.31c0-1.465-.352-2.291-1.245-2.291-1.24 0-1.756.891-1.756 2.29v4.178h-2.624V9.864Zm-4.5 8.512h2.624V9.75H5.625v8.624Zm3-11.438a1.688 1.688 0 1 1-3.375.074 1.688 1.688 0 0 1 3.375-.074Z" fill="#2C2C2C"/></svg>