<svg width="24" height="24" fill="none" xmlns="http://www.w3.org/2000/svg"><path fill-rule="evenodd" clip-rule="evenodd" d="M3 12c0-4.963 4.037-9 9-9s9 4.037 9 9-4.037 9-9 9-9-4.037-9-9Zm1.8 0c0 3.97 3.23 7.2 7.2 7.2s7.2-3.23 7.2-7.2-3.23-7.2-7.2-7.2S4.8 8.03 4.8 12Zm4.698-4.362A3.545 3.545 0 0 1 12 6.6a3.543 3.543 0 0 1 3.54 3.54c0 1.437-1.059 2.294-1.76 2.862l-.002.002-.037.03c-.163.131-.32.257-.445.383-.367.366-.396.699-.397.713l.001.57h-1.8v-.6c0-.107.026-1.06.924-1.957.199-.19.406-.37.622-.539.662-.535 1.095-.925 1.095-1.463 0-.96-.782-1.741-1.741-1.741-.96 0-1.74.78-1.74 1.74h-1.8a3.545 3.545 0 0 1 1.038-2.502ZM12.9 15.6h-1.8v1.8h1.8v-1.8Z" fill="#b6b5ff"/></svg>