<svg width="16" height="16" viewBox="0 0 16 16" xmlns="http://www.w3.org/2000/svg">
<path d="M2 12.8818C2 13.1617 2.23318 13.4 2.51818 13.4H9.25455C9.54473 13.4 9.77273 13.1617 9.77273 12.8818V12.3637H2V12.8818ZM5.88636 6.14549C3.94318 6.14549 2 7.18185 2 9.25458H9.77273C9.77273 7.18185 7.82955 6.14549 5.88636 6.14549ZM3.35764 8.21821C3.93282 7.41503 5.15573 7.18185 5.88636 7.18185C6.617 7.18185 7.83991 7.41503 8.41509 8.21821H3.35764ZM2 10.2909H9.77273V11.3273H2V10.2909ZM10.8091 4.07276V2.00003H9.77273V4.07276H7.18182L7.301 5.10912H12.2548L11.5294 12.3637H10.8091V13.4H11.7004C12.1356 13.4 12.4932 13.0632 12.545 12.6383L13.4 4.07276H10.8091Z" />
</svg>
