<svg width="24" height="24" viewBox="0 0 24 24" fill="none" xmlns="http://www.w3.org/2000/svg">
<path d="M0 12C0 5.37258 5.37258 0 12 0C18.6274 0 24 5.37258 24 12C24 18.6274 18.6274 24 12 24C5.37258 24 0 18.6274 0 12Z" fill="#32F3AE"/>
<path d="M6.00006 16.8818C6.00006 17.1617 6.23324 17.4 6.51824 17.4H13.2546C13.5448 17.4 13.7728 17.1617 13.7728 16.8818V16.3637H6.00006V16.8818ZM9.88643 10.1455C7.94324 10.1455 6.00006 11.1818 6.00006 13.2546H13.7728C13.7728 11.1818 11.8296 10.1455 9.88643 10.1455ZM7.3577 12.2182C7.93288 11.415 9.15579 11.1818 9.88643 11.1818C10.6171 11.1818 11.84 11.415 12.4152 12.2182H7.3577ZM6.00006 14.2909H13.7728V15.3273H6.00006V14.2909ZM14.8092 8.07276V6.00003H13.7728V8.07276H11.1819L11.3011 9.10912H16.2549L15.5294 16.3637H14.8092V17.4H15.7004C16.1357 17.4 16.4932 17.0632 16.5451 16.6383L17.4001 8.07276H14.8092Z" fill="#383838"/>
</svg>
