<svg width="24" height="24" fill="none" xmlns="http://www.w3.org/2000/svg"><path fill-rule="evenodd" clip-rule="evenodd" d="m22.567 7.15-.558.652-3 3.5L17.491 10l1.836-2.142h-5.14a3 3 0 0 0-2.777 1.865l-.992 2.428.992 2.427a3 3 0 0 0 2.777 1.866h5.14l-1.836-2.142L19.009 13l3 3.5.558.65-.558.652-3 3.5L17.491 20l1.334-1.556h-4.638a5 5 0 0 1-4.629-3.11l-.224-.548a5 5 0 0 1-4.521 2.865H2v-2h2.813a3 3 0 0 0 2.777-1.866l.668-1.634-.668-1.635a3 3 0 0 0-2.777-1.865H2v-2h2.813a5 5 0 0 1 4.521 2.865l.224-.549a5 5 0 0 1 4.629-3.11h4.638L17.49 4.303 19.009 3l3 3.5.558.65Z" fill="currentColor"/></svg>