<svg width="88" height="88" viewBox="0 0 88 88" fill="none" xmlns="http://www.w3.org/2000/svg">
<g filter="url(#filter0_d_58_3784)">
<path d="M24 44C24 32.9543 32.9543 24 44 24V24C55.0457 24 64 32.9543 64 44V44C64 55.0457 55.0457 64 44 64V64C32.9543 64 24 55.0457 24 44V44Z" fill="#32F3AE"/>
<path fill-rule="evenodd" clip-rule="evenodd" d="M41.1649 36.8252C40.8571 36.8252 40.5719 36.987 40.4139 37.2512L39.4536 38.8575H35.8999C35.4167 38.8575 35.0249 39.2492 35.0249 39.7325V50.3002C35.0249 50.7834 35.4167 51.1752 35.8999 51.1752H52.0999C52.5832 51.1752 52.9749 50.7834 52.9749 50.3002V39.7325C52.9749 39.2492 52.5832 38.8575 52.0999 38.8575H48.5462L47.5859 37.2512C47.4279 36.987 47.1427 36.8252 46.8349 36.8252H41.1649ZM40.7009 40.1815L41.6612 38.5752H46.3386L47.2989 40.1815C47.4569 40.4457 47.7421 40.6075 48.0499 40.6075H51.2249V49.4252H36.7749V40.6075H39.9499C40.2577 40.6075 40.5429 40.4457 40.7009 40.1815ZM45.8499 44.6002C45.8499 45.6219 45.0216 46.4502 43.9999 46.4502C42.9782 46.4502 42.1499 45.6219 42.1499 44.6002C42.1499 43.5785 42.9782 42.7502 43.9999 42.7502C45.0216 42.7502 45.8499 43.5785 45.8499 44.6002ZM47.5999 44.6002C47.5999 46.5884 45.9881 48.2002 43.9999 48.2002C42.0117 48.2002 40.3999 46.5884 40.3999 44.6002C40.3999 42.612 42.0117 41.0002 43.9999 41.0002C45.9881 41.0002 47.5999 42.612 47.5999 44.6002Z" fill="#383838"/>
</g>
<defs>
<filter id="filter0_d_58_3784" x="0" y="0" width="88" height="88" filterUnits="userSpaceOnUse" color-interpolation-filters="sRGB">
<feFlood flood-opacity="0" result="BackgroundImageFix"/>
<feColorMatrix in="SourceAlpha" type="matrix" values="0 0 0 0 0 0 0 0 0 0 0 0 0 0 0 0 0 0 127 0" result="hardAlpha"/>
<feOffset/>
<feGaussianBlur stdDeviation="12"/>
<feComposite in2="hardAlpha" operator="out"/>
<feColorMatrix type="matrix" values="0 0 0 0 0 0 0 0 0 0 0 0 0 0 0 0 0 0 0.1 0"/>
<feBlend mode="normal" in2="BackgroundImageFix" result="effect1_dropShadow_58_3784"/>
<feBlend mode="normal" in="SourceGraphic" in2="effect1_dropShadow_58_3784" result="shape"/>
</filter>
</defs>
</svg>
