<svg width="24" height="24" viewBox="0 0 24 24" fill="none" xmlns="http://www.w3.org/2000/svg">
<path d="M0 12C0 5.37258 5.37258 0 12 0C18.6274 0 24 5.37258 24 12C24 18.6274 18.6274 24 12 24C5.37258 24 0 18.6274 0 12Z" fill="#32F3AE"/>
<path fill-rule="evenodd" clip-rule="evenodd" d="M10.2991 7.69504C10.1143 7.69504 9.94322 7.7921 9.84844 7.95064L9.27225 8.91439H7.14005C6.8501 8.91439 6.61505 9.14944 6.61505 9.43939V15.78C6.61505 16.07 6.8501 16.305 7.14005 16.305H16.8601C17.15 16.305 17.3851 16.07 17.3851 15.78V9.43939C17.3851 9.14944 17.15 8.91439 16.8601 8.91439H14.7278L14.1517 7.95064C14.0569 7.7921 13.8858 7.69504 13.7011 7.69504H10.2991ZM10.0207 9.70879L10.5968 8.74504H13.4033L13.9794 9.70879C14.0742 9.86733 14.2453 9.96439 14.4301 9.96439H16.3351V15.255H7.66505V9.96439H9.57005C9.75476 9.96439 9.92588 9.86733 10.0207 9.70879ZM13.1101 12.36C13.1101 12.9731 12.6131 13.47 12.0001 13.47C11.387 13.47 10.8901 12.9731 10.8901 12.36C10.8901 11.747 11.387 11.25 12.0001 11.25C12.6131 11.25 13.1101 11.747 13.1101 12.36ZM14.1601 12.36C14.1601 13.553 13.193 14.52 12.0001 14.52C10.8071 14.52 9.84005 13.553 9.84005 12.36C9.84005 11.1671 10.8071 10.2 12.0001 10.2C13.193 10.2 14.1601 11.1671 14.1601 12.36Z" fill="#383838"/>
</svg>
