<svg width="24" height="24" fill="none" xmlns="http://www.w3.org/2000/svg"><path d="M22.102 5.892a8.063 8.063 0 0 1-2.311.634 4.036 4.036 0 0 0 1.77-2.228c-.79.47-1.655.8-2.557.976a4.028 4.028 0 0 0-6.86 3.674 11.434 11.434 0 0 1-8.3-4.208 4.028 4.028 0 0 0 1.246 5.376 4.016 4.016 0 0 1-1.823-.504v.052a4.028 4.028 0 0 0 3.23 3.948 4.056 4.056 0 0 1-1.819.07 4.028 4.028 0 0 0 3.762 2.795A8.08 8.08 0 0 1 3.439 18.2a8.21 8.21 0 0 1-.961-.056 11.387 11.387 0 0 0 6.17 1.809c7.408 0 11.457-6.135 11.457-11.456 0-.173-.004-.347-.012-.52a8.184 8.184 0 0 0 2.008-2.083l.002-.003Z" fill="#2C2C2C"/></svg>