<svg width="82" height="24" fill="none" xmlns="http://www.w3.org/2000/svg"><path d="M18.228 8.9h.869l-.437-.751a7.727 7.727 0 0 0-4.166-3.426l-1.206-.415.602 1.124c.524.978.927 2.015 1.198 3.09l.096.378H18.228Zm-5.817-4.348L12 3.957l-.411.595a13.178 13.178 0 0 0-1.787 3.704L9.61 8.9h4.783l-.194-.644a13.177 13.177 0 0 0-1.787-3.704Zm-7.862 9.37.095.378H8.64l-.068-.56A14.373 14.373 0 0 1 8.45 12c0-.583.051-1.155.122-1.74l.068-.56H4.644l-.095.379A7.917 7.917 0 0 0 4.3 12c0 .67.097 1.313.249 1.921ZM5.772 15.1h-.867l.434.75a7.688 7.688 0 0 0 4.168 3.427l1.21.414-.608-1.125c-.52-.96-.919-2.002-1.198-3.09l-.096-.376H5.772Zm2.655-6.2h.39l.095-.377a13.584 13.584 0 0 1 1.198-3.09l.6-1.122-1.203.412A7.688 7.688 0 0 0 5.34 8.15l-.434.75h3.522Zm3.162 10.548.411.595.411-.595a13.177 13.177 0 0 0 1.787-3.704l.194-.644H9.608l.193.644a13.177 13.177 0 0 0 1.787 3.704Zm2.517-5.148h.436l.06-.432c.082-.603.148-1.223.148-1.868s-.066-1.274-.149-1.869l-.06-.431H9.459l-.06.431A13.618 13.618 0 0 0 9.25 12c0 .645.066 1.265.149 1.868l.059.432h4.648Zm-.215 4.266-.61 1.128 1.213-.417a7.728 7.728 0 0 0 4.166-3.426l.437-.751h-3.912l-.096.376a13.582 13.582 0 0 1-1.198 3.09Zm1.537-4.826-.068.56h3.996l.095-.379A7.92 7.92 0 0 0 19.7 12a7.92 7.92 0 0 0-.249-1.921l-.095-.379H15.36l.068.56c.07.585.122 1.157.122 1.74s-.052 1.155-.122 1.74ZM3.5 12c0-4.693 3.8-8.5 8.491-8.5 4.701 0 8.509 3.808 8.509 8.5s-3.808 8.5-8.509 8.5C7.3 20.5 3.5 16.692 3.5 12Z" fill="#fff" stroke="#fff"/><path d="M33.644 11.366V7.978h3.64v3.388h-3.64Zm-4.984 0V7.978h3.626v3.388H28.66Zm4.984-4.662V4.268h-1.358v2.436h-4.928v6.762h1.302v-.826h3.626v4.452h1.358V12.64h3.64v.756h1.358V6.704h-4.998Zm16.044 1.218c-.63 1.722-1.498 3.15-2.632 4.326a13.472 13.472 0 0 1-2.8-4.326h5.432Zm3.626 0v-1.26h-6.286l1.246-.392c-.182-.574-.63-1.47-1.036-2.128l-1.372.406c.378.658.77 1.54.938 2.114h-6.062v1.26h2.156c.784 2.044 1.82 3.794 3.178 5.236-1.484 1.218-3.318 2.086-5.572 2.688.266.308.658.91.812 1.246 2.268-.7 4.172-1.68 5.726-2.996 1.512 1.316 3.374 2.31 5.6 2.912.21-.378.588-.924.882-1.204-2.156-.532-3.976-1.442-5.474-2.66 1.316-1.4 2.352-3.108 3.094-5.222h2.17Z" fill="#fff"/></svg>