<svg width="24" height="24" fill="none" xmlns="http://www.w3.org/2000/svg"><path d="m16.75 10.11-4.212-2.803V9.81l2.33 1.555 1.882-1.256Zm-4.75.632-1.901 1.27L12 13.28l1.901-1.269L12 10.742Zm.538 3.47v2.504l4.212-2.804-1.881-1.255-2.331 1.555ZM9.13 12.657l-1.88 1.255 4.211 2.804v-2.504l-2.33-1.555ZM20.28 3H3.72a.72.72 0 0 0-.72.72v16.56c0 .398.322.72.72.72h16.56a.72.72 0 0 0 .72-.72V3.72a.72.72 0 0 0-.72-.72Zm-2.025 10.912c0 .025-.002.048-.005.07 0 .01-.002.016-.004.023a.318.318 0 0 1-.018.072l-.014.038c-.004.009-.008.018-.01.027-.008.011-.012.025-.019.036a.156.156 0 0 1-.015.025l-.023.034-.018.022-.027.03a.208.208 0 0 1-.023.02.174.174 0 0 1-.031.024c-.009.007-.016.014-.025.018l-.009.007-5.717 3.807a.53.53 0 0 1-.297.09.549.549 0 0 1-.3-.09L5.985 14.36l-.01-.006-.024-.018-.03-.025a.194.194 0 0 0-.022-.02c-.009-.01-.018-.018-.027-.03a.152.152 0 0 1-.018-.022c-.009-.012-.016-.023-.022-.034-.005-.009-.012-.016-.016-.025a.27.27 0 0 1-.018-.036c-.005-.009-.01-.018-.011-.027a.745.745 0 0 0-.014-.038l-.009-.027a.316.316 0 0 1-.009-.045l-.004-.022a.727.727 0 0 1-.005-.07v-3.807c0-.023.002-.048.005-.07l.004-.023a.319.319 0 0 1 .018-.072l.013-.038c.005-.009.01-.018.012-.027a.269.269 0 0 1 .034-.06c.013-.02.026-.039.04-.057l.027-.029.022-.02a.285.285 0 0 1 .03-.025c.009-.007.015-.013.024-.018l.01-.007L11.7 5.857c.18-.119.416-.119.596 0l5.717 3.805.01.007.024.018.032.025a.346.346 0 0 1 .05.05c.015.017.028.035.04.056l.015.024c.007.011.014.023.018.036a.13.13 0 0 1 .012.027l.013.039c.002.008.007.017.009.026.005.016.007.03.009.045.002.007.002.016.005.023a.741.741 0 0 1 .004.07v3.804ZM17.18 12.91v-1.796l-1.346.898 1.346.898ZM6.82 11.113v1.796l1.346-.898-1.346-.897Zm4.642-1.302V7.306L7.25 10.11l1.881 1.256 2.331-1.555Z" fill="#2C2C2C"/></svg>