<svg width="16" height="16" viewBox="0 0 16 16" xmlns="http://www.w3.org/2000/svg">
<path fill-rule="evenodd" clip-rule="evenodd" d="M11.6 3.20002C11.2687 3.20002 11 3.46865 11 3.80002C11 4.13139 11.2687 4.40002 11.6 4.40002C11.9314 4.40002 12.2 4.13139 12.2 3.80002C12.2 3.46865 11.9314 3.20002 11.6 3.20002ZM9.80005 3.80002C9.80005 2.80591 10.6059 2.00002 11.6 2.00002C12.5942 2.00002 13.4 2.80591 13.4 3.80002C13.4 4.79413 12.5942 5.60002 11.6 5.60002C10.6059 5.60002 9.80005 4.79413 9.80005 3.80002ZM4.70005 13.4C5.52848 13.4 6.20005 12.7284 6.20005 11.9C6.20005 11.0716 5.52848 10.4 4.70005 10.4C3.87162 10.4 3.20005 11.0716 3.20005 11.9C3.20005 12.7284 3.87162 13.4 4.70005 13.4ZM4.83939 4.83936C5.12069 4.55805 5.50222 4.40002 5.90005 4.40002H8.00005V3.20002H5.90005C5.18396 3.20002 4.49721 3.48448 3.99086 3.99083C3.48451 4.49718 3.20005 5.18393 3.20005 5.90002C3.20005 6.6161 3.48451 7.30286 3.99086 7.80921C4.49721 8.31555 5.18396 8.60002 5.90005 8.60002H10.7C11.0979 8.60002 11.4794 8.75805 11.7607 9.03936C12.042 9.32066 12.2 9.70219 12.2 10.1C12.2 10.4978 12.042 10.8794 11.7607 11.1607C11.4794 11.442 11.0979 11.6 10.7 11.6H8.00005V12.8H10.7C11.4161 12.8 12.1029 12.5156 12.6092 12.0092C13.1156 11.5029 13.4 10.8161 13.4 10.1C13.4 9.38393 13.1156 8.69718 12.6092 8.19083C12.1029 7.68448 11.4161 7.40002 10.7 7.40002H5.90005C5.50222 7.40002 5.12069 7.24198 4.83939 6.96068C4.55808 6.67937 4.40005 6.29784 4.40005 5.90002C4.40005 5.50219 4.55808 5.12066 4.83939 4.83936Z" />
</svg>
