<svg width="24" height="24" viewBox="0 0 24 24" fill="none" xmlns="http://www.w3.org/2000/svg">
<path d="M0 12C0 5.37258 5.37258 0 12 0V0C18.6274 0 24 5.37258 24 12V12C24 18.6274 18.6274 24 12 24V24C5.37258 24 0 18.6274 0 12V12Z" fill="#32F3AE"/>
<path fill-rule="evenodd" clip-rule="evenodd" d="M15.6 7.20002C15.2687 7.20002 15 7.46865 15 7.80002C15 8.13139 15.2687 8.40002 15.6 8.40002C15.9314 8.40002 16.2 8.13139 16.2 7.80002C16.2 7.46865 15.9314 7.20002 15.6 7.20002ZM13.8 7.80002C13.8 6.80591 14.6059 6.00002 15.6 6.00002C16.5942 6.00002 17.4 6.80591 17.4 7.80002C17.4 8.79413 16.5942 9.60002 15.6 9.60002C14.6059 9.60002 13.8 8.79413 13.8 7.80002ZM8.70005 17.4C9.52848 17.4 10.2 16.7284 10.2 15.9C10.2 15.0716 9.52848 14.4 8.70005 14.4C7.87162 14.4 7.20005 15.0716 7.20005 15.9C7.20005 16.7284 7.87162 17.4 8.70005 17.4ZM8.83939 8.83936C9.12069 8.55805 9.50222 8.40002 9.90005 8.40002H12V7.20002H9.90005C9.18396 7.20002 8.49721 7.48448 7.99086 7.99083C7.48451 8.49718 7.20005 9.18393 7.20005 9.90002C7.20005 10.6161 7.48451 11.3029 7.99086 11.8092C8.49721 12.3156 9.18396 12.6 9.90005 12.6H14.7C15.0979 12.6 15.4794 12.7581 15.7607 13.0394C16.042 13.3207 16.2 13.7022 16.2 14.1C16.2 14.4978 16.042 14.8794 15.7607 15.1607C15.4794 15.442 15.0979 15.6 14.7 15.6H12V16.8H14.7C15.4161 16.8 16.1029 16.5156 16.6092 16.0092C17.1156 15.5029 17.4 14.8161 17.4 14.1C17.4 13.3839 17.1156 12.6972 16.6092 12.1908C16.1029 11.6845 15.4161 11.4 14.7 11.4H9.90005C9.50222 11.4 9.12069 11.242 8.83939 10.9607C8.55808 10.6794 8.40005 10.2978 8.40005 9.90002C8.40005 9.50219 8.55808 9.12066 8.83939 8.83936Z" fill="#383838"/>
</svg>
