<svg width="37" height="24" viewBox="0 0 37 24" fill="none" xmlns="http://www.w3.org/2000/svg">
<path d="M34 17.4144V22H20.1089V18.6068L27.7841 13.9613H20.1089V10.5497L30.8429 4.02118V3.91989H29.3229C25.7729 3.91989 21.8956 5.71547 20.2726 8.04052H20.151V3.31215L31.3948 3.45488L33.8971 2H34V6.82965L23.556 13.372V13.5147H24.9498C28.336 13.5147 32.3349 11.535 33.8737 9.35267H33.9953V14.8867L23.4952 21.4521L23.556 21.4337V21.5534H24.889C28.2939 21.4521 32.3162 19.6151 33.8784 17.4144H34Z" fill="white"/>
<path d="M16.8911 17.4144V22H3V18.6068L10.6752 13.9613H3V10.5497L13.734 4.02118V3.91989H12.2139C8.664 3.91989 4.78666 5.71547 3.1637 8.04052H3.04209V3.31215L14.2859 3.45488L16.7882 2H16.8911V6.82965L6.44704 13.372V13.5147H7.84083C11.2271 13.5147 15.226 11.535 16.7648 9.35267H16.8864V14.8867L6.38624 21.4521L6.44704 21.4337V21.5534H7.78003C11.185 21.4521 15.2073 19.6151 16.7695 17.4144H16.8911Z" fill="white"/>
</svg>
