<svg width="24" height="24" fill="none" xmlns="http://www.w3.org/2000/svg"><path d="M0 12C0 5.373 5.373 0 12 0s12 5.373 12 12-5.373 12-12 12S0 18.627 0 12Z" fill="#383838"/><path d="M14.7 16.326H9.3v.537a.535.535 0 0 1-.54.537h-.54a.542.542 0 0 1-.54-.537v-.537h-.54v-4.295H6.6V9.884h.54v-1.61c0-.285.113-.558.316-.76.202-.2.477-.314.764-.314h7.56c.286 0 .56.113.763.314.203.202.317.475.317.76v1.61h.54v2.147h-.54v4.295h-.54v.537a.535.535 0 0 1-.54.537h-.54a.541.541 0 0 1-.54-.537v-.537ZM8.22 8.274v4.831h7.56V8.274H8.22Zm0 5.905v1.074h2.16v-1.074H8.22Zm5.4 0v1.074h2.16v-1.074h-2.16Z" fill="#fff"/></svg>