<svg width="24" height="24" viewBox="0 0 24 24" fill="none" xmlns="http://www.w3.org/2000/svg">
<path d="M0 12C0 5.37258 5.37258 0 12 0C18.6274 0 24 5.37258 24 12C24 18.6274 18.6274 24 12 24C5.37258 24 0 18.6274 0 12Z" fill="#383838"/>
<path d="M6 16.8818C6 17.1616 6.23318 17.4 6.51818 17.4H13.2545C13.5447 17.4 13.7727 17.1616 13.7727 16.8818V16.3636H6V16.8818ZM9.88636 10.1455C7.94318 10.1455 6 11.1818 6 13.2545H13.7727C13.7727 11.1818 11.8295 10.1455 9.88636 10.1455ZM7.35764 12.2182C7.93282 11.415 9.15573 11.1818 9.88636 11.1818C10.617 11.1818 11.8399 11.415 12.4151 12.2182H7.35764ZM6 14.2909H13.7727V15.3273H6V14.2909ZM14.8091 8.07273V6H13.7727V8.07273H11.1818L11.301 9.10909H16.2548L15.5294 16.3636H14.8091V17.4H15.7004C16.1356 17.4 16.4932 17.0632 16.545 16.6383L17.4 8.07273H14.8091Z" fill="white"/>
</svg>
