<svg width="24" height="24" viewBox="0 0 24 24" fill="none" xmlns="http://www.w3.org/2000/svg">
<path d="M0 12C0 5.37258 5.37258 0 12 0C18.6274 0 24 5.37258 24 12C24 18.6274 18.6274 24 12 24C5.37258 24 0 18.6274 0 12Z" fill="#383838"/>
<path fill-rule="evenodd" clip-rule="evenodd" d="M10.2987 7.69482C10.114 7.69482 9.94292 7.79189 9.84814 7.95042L9.27195 8.91418H7.13975C6.8498 8.91418 6.61475 9.14923 6.61475 9.43918V15.7798C6.61475 16.0698 6.8498 16.3048 7.13975 16.3048H16.8597C17.1497 16.3048 17.3847 16.0698 17.3847 15.7798V9.43918C17.3847 9.14923 17.1497 8.91418 16.8597 8.91418H14.7275L14.1514 7.95042C14.0566 7.79189 13.8855 7.69482 13.7007 7.69482H10.2987ZM10.0204 9.70858L10.5965 8.74482H13.4029L13.9791 9.70858C14.0739 9.86711 14.245 9.96418 14.4297 9.96418H16.3347V15.2548H7.66475V9.96418H9.56975C9.75445 9.96418 9.92557 9.86711 10.0204 9.70858ZM13.1097 12.3598C13.1097 12.9729 12.6128 13.4698 11.9997 13.4698C11.3867 13.4698 10.8897 12.9729 10.8897 12.3598C10.8897 11.7468 11.3867 11.2498 11.9997 11.2498C12.6128 11.2498 13.1097 11.7468 13.1097 12.3598ZM14.1597 12.3598C14.1597 13.5528 13.1927 14.5198 11.9997 14.5198C10.8068 14.5198 9.83975 13.5528 9.83975 12.3598C9.83975 11.1669 10.8068 10.1998 11.9997 10.1998C13.1927 10.1998 14.1597 11.1669 14.1597 12.3598Z" fill="white"/>
</svg>
