<svg width="16" height="16" viewBox="0 0 16 16"  xmlns="http://www.w3.org/2000/svg">
<path fill-rule="evenodd" clip-rule="evenodd" d="M6.29899 3.69504C6.11428 3.69504 5.94316 3.7921 5.84838 3.95064L5.27219 4.91439H3.13999C2.85004 4.91439 2.61499 5.14944 2.61499 5.43939V11.78C2.61499 12.07 2.85004 12.305 3.13999 12.305H12.86C13.1499 12.305 13.385 12.07 13.385 11.78V5.43939C13.385 5.14944 13.1499 4.91439 12.86 4.91439H10.7278L10.1516 3.95064C10.0568 3.7921 9.8857 3.69504 9.70099 3.69504H6.29899ZM6.0206 5.70879L6.59679 4.74504H9.40319L9.97938 5.70879C10.0742 5.86733 10.2453 5.96439 10.43 5.96439H12.335V11.255H3.66499V5.96439H5.56999C5.7547 5.96439 5.92582 5.86733 6.0206 5.70879ZM9.10999 8.36003C9.10999 8.97307 8.61303 9.47003 7.99999 9.47003C7.38695 9.47003 6.88999 8.97307 6.88999 8.36003C6.88999 7.74699 7.38695 7.25003 7.99999 7.25003C8.61303 7.25003 9.10999 7.74699 9.10999 8.36003ZM10.16 8.36003C10.16 9.55297 9.19293 10.52 7.99999 10.52C6.80706 10.52 5.83999 9.55297 5.83999 8.36003C5.83999 7.1671 6.80706 6.20003 7.99999 6.20003C9.19293 6.20003 10.16 7.1671 10.16 8.36003Z"/>
</svg>
