<svg xmlns="http://www.w3.org/2000/svg"  viewBox="0 0 16 16">
  <path  d="M14.371 5.1a6.27 6.27 0 0 0-.008-.358A6.192 6.192 0 0 0 16 3.305c-.6.224-1.235.372-1.886.439.686-.348 1.198-.894 1.443-1.538a7.363 7.363 0 0 1-2.083.674c-.495-.447-1.15-.743-1.864-.843a3.81 3.81 0 0 0-2.085.292c-.638.289-1.145.747-1.443 1.305a2.385 2.385 0 0 0-.203 1.779 10.698 10.698 0 0 1-3.747-.844A9.22 9.22 0 0 1 1.113 2.51 2.409 2.409 0 0 0 .75 4.535c.189.69.682 1.292 1.379 1.684A3.761 3.761 0 0 1 .64 5.87v.034c0 .64.262 1.262.742 1.758s1.149.836 1.892.963c-.483.111-.99.128-1.481.049.21.55.619 1.033 1.168 1.378.55.345 1.213.537 1.898.548-1.123.746-2.539 1.188-4.077 1.188-.266 0-.528-.01-.783-.037 1.5.817 3.247 1.25 5.032 1.248 6.039 0 9.34-4.23 9.34-7.9Z"/>
</svg>