<svg width="88" height="88" fill="none" xmlns="http://www.w3.org/2000/svg"><g filter="url(#a)"><path d="M24 44c0-11.046 8.954-20 20-20s20 8.954 20 20-8.954 20-20 20-20-8.954-20-20Z" fill="#32F3AE"/><path d="M48.5 51.21h-9v.895a.892.892 0 0 1-.264.633.903.903 0 0 1-.636.262h-.9a.903.903 0 0 1-.636-.262.892.892 0 0 1-.264-.633v-.894h-.9v-7.158H35v-3.58h.9V37.79c0-.474.19-.93.527-1.265A1.805 1.805 0 0 1 37.7 36h12.6c.477 0 .935.188 1.273.524.337.336.527.79.527 1.265v2.685h.9v3.579h-.9v7.158h-.9v.894a.892.892 0 0 1-.264.633.903.903 0 0 1-.636.262h-.9a.903.903 0 0 1-.636-.262.892.892 0 0 1-.264-.633v-.894ZM37.7 37.79v8.052h12.6V37.79H37.7Zm0 9.842v1.79h3.6v-1.79h-3.6Zm9 0v1.79h3.6v-1.79h-3.6Z" fill="#383838"/></g><defs><filter id="a" x="0" y="0" width="88" height="88" filterUnits="userSpaceOnUse" color-interpolation-filters="sRGB"><feFlood flood-opacity="0" result="BackgroundImageFix"/><feColorMatrix in="SourceAlpha" values="0 0 0 0 0 0 0 0 0 0 0 0 0 0 0 0 0 0 127 0" result="hardAlpha"/><feOffset/><feGaussianBlur stdDeviation="12"/><feComposite in2="hardAlpha" operator="out"/><feColorMatrix values="0 0 0 0 0 0 0 0 0 0 0 0 0 0 0 0 0 0 0.1 0"/><feBlend in2="BackgroundImageFix" result="effect1_dropShadow_21_4493"/><feBlend in="SourceGraphic" in2="effect1_dropShadow_21_4493" result="shape"/></filter></defs></svg>